<svg width="32" height="32" viewBox="0 0 32 32" fill="none" xmlns="http://www.w3.org/2000/svg">
<path d="M8.375 20.2804L12.8645 14.4469L17.9855 18.4669L22.379 12.7969" stroke="#2699FB" stroke-width="2" stroke-linecap="round" stroke-linejoin="round"/>
<path fill-rule="evenodd" clip-rule="evenodd" d="M27.5002 1.52539C29.0932 1.52539 30.3832 2.81539 30.3832 4.40839C30.3832 5.99989 29.0932 7.29139 27.5002 7.29139C25.9072 7.29139 24.6172 5.99989 24.6172 4.40839C24.6172 2.81539 25.9072 1.52539 27.5002 1.52539Z" stroke="#2699FB" stroke-width="2" stroke-linecap="round" stroke-linejoin="round"/>
<path d="M29.1328 11.9038C29.3323 13.2463 29.4238 14.7583 29.4238 16.4548C29.4238 26.8618 25.9558 30.3298 15.5488 30.3298C5.14333 30.3298 1.67383 26.8618 1.67383 16.4548C1.67383 6.04933 5.14333 2.57983 15.5488 2.57983C17.2138 2.57983 18.7003 2.66833 20.0233 2.86033" stroke="#2699FB" stroke-width="2" stroke-linecap="round" stroke-linejoin="round"/>
</svg>
