<svg width="30" height="30" viewBox="0 0 30 30" fill="none" xmlns="http://www.w3.org/2000/svg">
<path d="M15 1.125C4.5945 1.125 1.125 4.5945 1.125 15C1.125 25.4055 4.5945 28.875 15 28.875C25.4055 28.875 28.875 25.4055 28.875 15" stroke="#2699FB" stroke-width="2" stroke-linecap="round" stroke-linejoin="round"/>
<path fill-rule="evenodd" clip-rule="evenodd" d="M26.2921 3.45595C24.8026 2.13745 22.5271 2.27545 21.2086 3.76495C21.2086 3.76495 14.6551 11.1674 12.3826 13.7369C10.1071 16.3049 11.7751 19.8524 11.7751 19.8524C11.7751 19.8524 15.5311 21.0419 17.7721 18.5099C20.0146 15.9779 26.6011 8.53945 26.6011 8.53945C27.9196 7.04995 27.7801 4.77445 26.2921 3.45595Z" stroke="#2699FB" stroke-width="2" stroke-linecap="round" stroke-linejoin="round"/>
<path d="M19.5137 5.70117L24.9062 10.4757" stroke="#2699FB" stroke-width="2" stroke-linecap="round" stroke-linejoin="round"/>
</svg>
